<svg xmlns="http://www.w3.org/2000/svg" xmlns:xlink="http://www.w3.org/1999/xlink" width="1080" zoomAndPan="magnify" viewBox="0 0 810 809.999993" height="1080" preserveAspectRatio="xMidYMid meet" version="1.0"><defs><filter x="0%" y="0%" width="100%" height="100%" id="3f72b5f515"><feColorMatrix values="0 0 0 0 1 0 0 0 0 1 0 0 0 0 1 0 0 0 1 0" colorInterpolationFilters="sRGB"/></filter><clipPath id="55c2ed9977"><path d="M 0 0 L 791 0 L 791 742 L 0 742 Z M 0 0 " clip-rule="nonzero"/></clipPath><clipPath id="e869e9ef89"><path d="M 756.914062 -145.414062 L 795.339844 -106.988281 L -61.09375 749.445312 L -99.519531 711.019531 Z M 756.914062 -145.414062 " clip-rule="nonzero"/></clipPath><clipPath id="b195dcc7c5"><path d="M 790.640625 -102.289062 C 432.929688 254.667969 432.648438 253.824219 428.511719 257.207031 C 420.050781 264.351562 409.804688 274.789062 391.847656 292.367188 C 340.800781 342.285156 146.953125 540.648438 100.511719 583.703125 C 86.597656 596.679688 84.8125 596.394531 72.402344 607.863281 C 45.890625 632.496094 -30.539062 711.371094 -48.683594 728.761719 C -53.855469 733.746094 -55.546875 736 -58.742188 738.070312 C -61.09375 739.667969 -63.347656 741.921875 -65.605469 741.171875 C -69.554688 739.855469 -78.296875 724.15625 -77.167969 720.394531 C -76.511719 718.234375 -73.878906 719.359375 -70.683594 716.917969 C -54.417969 704.789062 34.046875 610.308594 60.273438 586.335938 C 70.898438 576.652344 71.835938 577.59375 83.589844 566.78125 C 127.492188 526.640625 337.417969 312.203125 381.414062 268.957031 C 393.820312 256.738281 398.050781 252.128906 405.386719 245.738281 C 411.121094 240.753906 412.90625 240.660156 421.273438 233.234375 C 462.917969 196.289062 731.035156 -119.398438 773.527344 -119.398438 C 782.929688 -119.398438 790.640625 -102.289062 790.640625 -102.289062 " clipRule="nonzero"/></clipPath><mask id="351e91204a"><g filter="url(#3f72b5f515)"><rect x="-81" width="972" fill="#000000" y="-80.999999" height="971.999992" fillOpacity="0.5"/></g></mask><clipPath id="a4d3dfecf3"><path d="M 0 0 L 790.800781 0 L 790.800781 742 L 0 742 Z M 0 0 " clipRule="nonzero"/></clipPath><clipPath id="5b1c9531db"><path d="M 756.914062 -145.414062 L 795.339844 -106.988281 L -61.09375 749.445312 L -99.519531 711.019531 Z M 756.914062 -145.414062 " clipRule="nonzero"/></clipPath><clipPath id="f12473163e"><path d="M 790.640625 -102.289062 C 432.929688 254.667969 432.648438 253.824219 428.511719 257.207031 C 420.050781 264.351562 409.804688 274.789062 391.847656 292.367188 C 340.800781 342.285156 146.953125 540.648438 100.511719 583.703125 C 86.597656 596.679688 84.8125 596.394531 72.402344 607.863281 C 45.890625 632.496094 -30.539062 711.371094 -48.683594 728.761719 C -53.855469 733.746094 -55.546875 736 -58.742188 738.070312 C -61.09375 739.667969 -63.347656 741.921875 -65.605469 741.171875 C -69.554688 739.855469 -78.296875 724.15625 -77.167969 720.394531 C -76.511719 718.234375 -73.878906 719.359375 -70.683594 716.917969 C -54.417969 704.789062 34.046875 610.308594 60.273438 586.335938 C 70.898438 576.652344 71.835938 577.59375 83.589844 566.78125 C 127.492188 526.640625 337.417969 312.203125 381.414062 268.957031 C 393.820312 256.738281 398.050781 252.128906 405.386719 245.738281 C 411.121094 240.753906 412.90625 240.660156 421.273438 233.234375 C 462.917969 196.289062 731.035156 -119.398438 773.527344 -119.398438 C 782.929688 -119.398438 790.640625 -102.289062 790.640625 -102.289062 " clipRule="nonzero"/></clipPath><clipPath id="53bcf83d95"><rect x="0" width="791" y="0" height="742"/></clipPath><clipPath id="c9c2864a82"><path d="M 0 0 L 741 0 L 741 665 L 0 665 Z M 0 0 " clipRule="nonzero"/></clipPath><clipPath id="fb142666e1"><path d="M 706.539062 -222.164062 L 744.964844 -183.734375 L -111.46875 672.695312 L -149.894531 634.269531 Z M 706.539062 -222.164062 " clipRule="nonzero"/></clipPath><clipPath id="bf5b97fd23"><path d="M 740.265625 -179.035156 C 382.554688 177.921875 382.273438 177.074219 378.136719 180.460938 C 369.675781 187.605469 359.429688 198.039062 341.472656 215.621094 C 290.425781 265.539062 96.578125 463.902344 50.136719 506.957031 C 36.222656 519.929688 34.4375 519.648438 22.027344 531.117188 C -4.484375 555.75 -80.914062 634.621094 -99.058594 652.015625 C -104.230469 656.996094 -105.921875 659.253906 -109.117188 661.320312 C -111.46875 662.921875 -113.722656 665.175781 -115.980469 664.425781 C -119.929688 663.109375 -128.671875 647.410156 -127.542969 643.648438 C -126.886719 641.484375 -124.253906 642.613281 -121.054688 640.167969 C -104.792969 628.042969 -16.328125 533.5625 9.898438 509.589844 C 20.523438 499.90625 21.460938 500.847656 33.214844 490.035156 C 77.117188 449.894531 287.042969 235.457031 331.039062 192.210938 C 343.449219 179.988281 347.679688 175.382812 355.011719 168.992188 C 360.746094 164.007812 362.53125 163.914062 370.898438 156.488281 C 412.546875 119.542969 680.664062 -196.144531 723.15625 -196.144531 C 732.554688 -196.144531 740.265625 -179.035156 740.265625 -179.035156 " clip-rule="nonzero"/></clipPath><mask id="4315e89999"><g filter="url(#3f72b5f515)"><rect x="-81" width="972" fill="#000000" y="-80.999999" height="971.999992" fillOpacity="0.5"/></g></mask><clipPath id="ee72465ee1"><path d="M 0 0 L 740.398438 0 L 740.398438 665 L 0 665 Z M 0 0 " clipRule="nonzero"/></clipPath><clipPath id="80d9e0f3e1"><path d="M 706.539062 -222.164062 L 744.964844 -183.734375 L -111.46875 672.695312 L -149.894531 634.269531 Z M 706.539062 -222.164062 " clipRule="nonzero"/></clipPath><clipPath id="ce7599fb48"><path d="M 740.265625 -179.035156 C 382.554688 177.921875 382.273438 177.074219 378.136719 180.460938 C 369.675781 187.605469 359.429688 198.039062 341.472656 215.621094 C 290.425781 265.539062 96.578125 463.902344 50.136719 506.957031 C 36.222656 519.929688 34.4375 519.648438 22.027344 531.117188 C -4.484375 555.75 -80.914062 634.621094 -99.058594 652.015625 C -104.230469 656.996094 -105.921875 659.253906 -109.117188 661.320312 C -111.46875 662.921875 -113.722656 665.175781 -115.980469 664.425781 C -119.929688 663.109375 -128.671875 647.410156 -127.542969 643.648438 C -126.886719 641.484375 -124.253906 642.613281 -121.054688 640.167969 C -104.792969 628.042969 -16.328125 533.5625 9.898438 509.589844 C 20.523438 499.90625 21.460938 500.847656 33.214844 490.035156 C 77.117188 449.894531 287.042969 235.457031 331.039062 192.210938 C 343.449219 179.988281 347.679688 175.382812 355.011719 168.992188 C 360.746094 164.007812 362.53125 163.914062 370.898438 156.488281 C 412.546875 119.542969 680.664062 -196.144531 723.15625 -196.144531 C 732.554688 -196.144531 740.265625 -179.035156 740.265625 -179.035156 " clipRule="nonzero"/></clipPath><clipPath id="2ce2169070"><rect x="0" width="741" y="0" height="665"/></clipPath><clipPath id="4706ae90ed"><path d="M 0 0 L 810 0 L 810 805 L 0 805 Z M 0 0 " clipRule="nonzero"/></clipPath><clipPath id="b59feb25b3"><path d="M 820.472656 -81.855469 L 858.902344 -43.425781 L 2.46875 813.003906 L -35.957031 774.578125 Z M 820.472656 -81.855469 " clipRule="nonzero"/></clipPath><clipPath id="ea5b548150"><path d="M 854.199219 -38.726562 C 496.492188 318.230469 496.210938 317.382812 492.074219 320.769531 C 483.613281 327.914062 473.363281 338.347656 455.410156 355.929688 C 404.363281 405.847656 210.511719 604.207031 164.070312 647.265625 C 150.15625 660.238281 148.371094 659.957031 135.960938 671.425781 C 109.453125 696.058594 33.019531 774.929688 14.878906 792.324219 C 9.707031 797.304688 8.015625 799.5625 4.816406 801.628906 C 2.46875 803.226562 0.210938 805.484375 -2.042969 804.734375 C -5.992188 803.417969 -14.734375 787.714844 -13.609375 783.957031 C -12.949219 781.792969 -10.316406 782.921875 -7.121094 780.476562 C 9.144531 768.351562 97.605469 673.871094 123.835938 649.898438 C 134.457031 640.214844 135.398438 641.15625 147.148438 630.34375 C 191.050781 590.203125 400.976562 375.765625 444.972656 332.519531 C 457.382812 320.296875 461.613281 315.691406 468.945312 309.300781 C 474.679688 304.316406 476.46875 304.222656 484.835938 296.796875 C 526.480469 259.851562 794.597656 -55.835938 837.089844 -55.835938 C 846.492188 -55.835938 854.199219 -38.726562 854.199219 -38.726562 " clipRule="nonzero"/></clipPath><mask id="d3518ad936"><g filter="url(#3f72b5f515)"><rect x="-81" width="972" fill="#000000" y="-80.999999" height="971.999992" fillOpacity="0.5"/></g></mask><clipPath id="9f06ef5121"><path d="M 0 0 L 810 0 L 810 805 L 0 805 Z M 0 0 " clipRule="nonzero"/></clipPath><clipPath id="d7c755481c"><path d="M 820.472656 -81.855469 L 858.902344 -43.425781 L 2.46875 813.003906 L -35.957031 774.578125 Z M 820.472656 -81.855469 " clipRule="nonzero"/></clipPath><clipPath id="b6f9190f37"><path d="M 854.199219 -38.726562 C 496.492188 318.230469 496.210938 317.382812 492.074219 320.769531 C 483.613281 327.914062 473.363281 338.347656 455.410156 355.929688 C 404.363281 405.847656 210.511719 604.207031 164.070312 647.265625 C 150.15625 660.238281 148.371094 659.957031 135.960938 671.425781 C 109.453125 696.058594 33.019531 774.929688 14.878906 792.324219 C 9.707031 797.304688 8.015625 799.5625 4.816406 801.628906 C 2.46875 803.226562 0.210938 805.484375 -2.042969 804.734375 C -5.992188 803.417969 -14.734375 787.714844 -13.609375 783.957031 C -12.949219 781.792969 -10.316406 782.921875 -7.121094 780.476562 C 9.144531 768.351562 97.605469 673.871094 123.835938 649.898438 C 134.457031 640.214844 135.398438 641.15625 147.148438 630.34375 C 191.050781 590.203125 400.976562 375.765625 444.972656 332.519531 C 457.382812 320.296875 461.613281 315.691406 468.945312 309.300781 C 474.679688 304.316406 476.46875 304.222656 484.835938 296.796875 C 526.480469 259.851562 794.597656 -55.835938 837.089844 -55.835938 C 846.492188 -55.835938 854.199219 -38.726562 854.199219 -38.726562 " clipRule="nonzero"/></clipPath><clipPath id="7d4c70934a"><rect x="0" width="810" y="0" height="805"/></clipPath></defs><g clipPath="url(#55c2ed9977)"><g clipPath="url(#e869e9ef89)"><g clipPath="url(#b195dcc7c5)"><g mask="url(#351e91204a)"><g transform="matrix(1, 0, 0, 1, 0, 0.000000000000039746)"><g clipPath="url(#53bcf83d95)"><g clipPath="url(#a4d3dfecf3)"><g clipPath="url(#5b1c9531db)"><g clipPath="url(#f12473163e)"><path fill="#d146bf" d="M 768.078125 -132.371094 L 798.160156 -102.289062 L -59.210938 755.085938 L -89.296875 725 Z M 768.078125 -132.371094 " fillOpacity="1" fillRule="nonzero"/></g></g></g></g></g></g></g></g></g><g clip-path="url(#c9c2864a82)"><g clipPath="url(#fb142666e1)"><g clipPath="url(#bf5b97fd23)"><g mask="url(#4315e89999)"><g transform="matrix(1, 0, 0, 1, 0, 0.000000000000039746)"><g clipPath="url(#2ce2169070)"><g clipPath="url(#ee72465ee1)"><g clipPath="url(#80d9e0f3e1)"><g clipPath="url(#ce7599fb48)"><path fill="#00eeb9" d="M 717.703125 -209.117188 L 747.785156 -179.035156 L -109.585938 678.335938 L -139.671875 648.253906 Z M 717.703125 -209.117188 " fillOpacity="1" fill-rule="nonzero"/></g></g></g></g></g></g></g></g></g><g clipPath="url(#4706ae90ed)"><g clipPath="url(#b59feb25b3)"><g clip-path="url(#ea5b548150)"><g mask="url(#d3518ad936)"><g transform="matrix(1, 0, 0, 1, 0, 0.000000000000039746)"><g clipPath="url(#7d4c70934a)"><g clipPath="url(#9f06ef5121)"><g clipPath="url(#d7c755481c)"><g clipPath="url(#b6f9190f37)"><path fill="#f8a813" d="M 831.636719 -68.808594 L 861.722656 -38.726562 L 4.347656 818.644531 L -25.734375 788.5625 Z M 831.636719 -68.808594 " fillOpacity="1" fillRule="nonzero"/></g></g></g></g></g></g></g></g></g></svg>