<svg xmlns="http://www.w3.org/2000/svg" xmlns:xlink="http://www.w3.org/1999/xlink" width="1080" zoomAndPan="magnify" viewBox="0 0 810 809.999993" height="1080" preserveAspectRatio="xMidYMid meet" version="1.0"><defs><clipPath id="7a9d061403"><path d="M 4 170 L 810 170 L 810 722 L 4 722 Z M 4 170 " clip-rule="nonzero"/></clipPath><clipPath id="af07115e92"><path d="M 882.464844 669.589844 L 316.613281 927.246094 L -0.0976562 231.710938 L 565.753906 -25.945312 Z M 882.464844 669.589844 " clip-rule="nonzero"/></clipPath><clipPath id="452d807ce0"><path d="M 565.839844 -25.753906 L -0.0078125 231.902344 L 316.699219 927.441406 L 882.550781 669.78125 Z M 565.839844 -25.753906 " clip-rule="nonzero"/></clipPath><clipPath id="e75f7a99d3"><path d="M 565.753906 -25.714844 L -0.0976562 231.941406 L 316.660156 927.582031 L 882.511719 669.925781 Z M 565.753906 -25.714844 " clip-rule="nonzero"/></clipPath><clipPath id="27c563221b"><path d="M 565.753906 -25.714844 L 0.0976562 231.851562 L 316.722656 927.203125 L 882.378906 669.632812 Z M 565.753906 -25.714844 " clip-rule="nonzero"/></clipPath></defs><g clip-path="url(#7a9d061403)"><g clip-path="url(#af07115e92)"><g clip-path="url(#452d807ce0)"><g clip-path="url(#e75f7a99d3)"><g clip-path="url(#27c563221b)"><path fill="#fefefe" d="M 30.09375 249.339844 C 40.71875 251.914062 56.691406 251.371094 103.726562 246.84375 C 117.351562 245.53125 135.53125 244.128906 144.125 243.734375 C 152.71875 243.335938 170.953125 242.210938 184.644531 241.230469 C 198.328125 240.253906 214.359375 239.292969 220.261719 239.101562 L 230.996094 238.753906 L 234.613281 231.960938 C 240.273438 221.34375 260.320312 188.203125 264.535156 182.5 L 268.339844 177.359375 L 256.347656 180.550781 C 249.75 182.304688 224.667969 188.320312 200.609375 193.914062 C 176.550781 199.515625 154.195312 204.957031 150.933594 206.007812 C 145.46875 207.773438 96.101562 215.886719 43.902344 223.589844 C 19.109375 227.25 11.976562 230.136719 11.636719 236.636719 C 11.351562 242.042969 17.539062 246.296875 30.09375 249.339844 Z M 345.347656 341.0625 C 339.066406 337.769531 333.242188 335.222656 332.410156 335.402344 C 331.578125 335.585938 329.324219 339.5625 327.40625 344.253906 C 324.804688 350.59375 324.472656 352.871094 326.113281 353.15625 C 327.324219 353.367188 334.714844 352.082031 342.542969 350.296875 L 356.773438 347.054688 Z M 8.234375 229.941406 C 14.914062 222.886719 24.265625 220.457031 82.738281 210.578125 C 115.5625 205.023438 151.355469 198.0625 170.242188 193.546875 C 210.785156 183.859375 270.371094 170.972656 276.472656 170.570312 C 299.113281 169.070312 319.0625 173.554688 366.816406 190.871094 C 425.773438 212.253906 572.859375 275.164062 593.867188 292.949219 C 594.648438 293.609375 656.160156 348.957031 719.054688 417.257812 C 743.078125 443.347656 774.785156 477.457031 789.515625 493.0625 C 815.960938 521.078125 822.371094 529.601562 807.273438 516.664062 C 790.542969 502.328125 724.75 435.019531 660.410156 366.429688 C 634.40625 338.703125 604.097656 309.589844 591.300781 300.039062 C 576.453125 288.957031 543.535156 271.808594 510.4375 257.914062 C 495.785156 251.765625 464.8125 238.570312 441.609375 228.597656 C 393.96875 208.121094 358.675781 194.777344 320.800781 182.921875 C 297.316406 175.566406 294.144531 174.960938 287.085938 176.515625 C 277.546875 178.621094 269.542969 186.019531 262.035156 199.679688 C 252.699219 216.671875 239.800781 240.804688 236.375 247.691406 C 234.507812 251.449219 231.347656 257.335938 229.351562 260.78125 C 217.835938 280.675781 202.996094 315.347656 200.335938 328.597656 C 198 340.191406 202.136719 351.582031 211.878906 355.53125 C 213.097656 356.027344 216.914062 357.070312 216.914062 357.070312 L 217.394531 351.921875 C 217.71875 348.542969 218.84375 343.496094 219.902344 340.703125 C 227.324219 321.113281 232.246094 310.21875 240.074219 296.042969 C 245.003906 287.128906 251.53125 274.730469 254.59375 268.488281 C 257.65625 262.253906 265.265625 247.988281 271.511719 236.792969 C 277.757812 225.59375 283.894531 214.453125 285.152344 212.039062 C 287.21875 208.082031 287.597656 207.894531 289.015625 210.132812 C 290.117188 211.875 289.160156 215.394531 285.84375 221.796875 C 283.234375 226.84375 274.417969 244.699219 266.257812 261.472656 C 258.097656 278.25 248.636719 296.964844 245.226562 303.058594 C 234.144531 322.90625 225.914062 343.300781 225.632812 351.628906 C 225.402344 358.632812 225.773438 359.816406 229.1875 362.910156 C 236.207031 369.273438 241.460938 370.816406 250.652344 369.222656 L 259.257812 367.726562 L 260.40625 359.621094 C 261.382812 352.746094 266.664062 335.71875 284.265625 282.714844 C 285.742188 278.261719 288.785156 271.722656 291.019531 268.167969 C 294.648438 262.417969 295.710938 261.703125 300.839844 261.535156 C 308.066406 261.296875 312.066406 263.546875 306.398438 264.652344 C 300.535156 265.804688 292.5 280.425781 286.128906 301.535156 C 283.171875 311.339844 277.941406 327.8125 274.503906 338.148438 C 266.234375 363.03125 265.359375 369.539062 269.539062 375.171875 C 274.011719 381.195312 281.378906 383.726562 298.449219 385.105469 C 316.199219 386.542969 318.007812 386.226562 340.714844 377.800781 C 350.417969 374.195312 361.125 370.691406 364.515625 370.011719 C 376.964844 367.515625 378.113281 359.382812 366.460938 356.265625 C 361.832031 355.023438 354.882812 355.125 343.65625 356.59375 C 334.777344 357.753906 325.710938 358.582031 323.511719 358.429688 C 320.226562 358.199219 318.652344 359.460938 314.710938 365.46875 C 309.566406 373.324219 304.824219 375.75 303.894531 371 C 303.589844 369.429688 308.152344 359.9375 314.035156 349.90625 C 323.871094 333.136719 324.5 331.488281 321.871094 329.523438 C 318.394531 326.925781 317.972656 325.472656 320.554688 324.96875 C 323.570312 324.378906 353.429688 336.75 368.136719 344.683594 C 407.183594 365.75 450.964844 384.28125 469.027344 387.386719 C 481.25 389.492188 499.402344 387.859375 512.351562 383.5 L 522.53125 380.070312 L 534.449219 388.503906 C 549.1875 398.933594 567.753906 420.695312 606.636719 473.09375 C 664.636719 551.261719 707.410156 614.972656 753.859375 692.394531 C 770.074219 719.421875 770.847656 720.96875 768.394531 721.449219 C 767.558594 721.609375 766.730469 721.003906 766.550781 720.09375 C 766.375 719.183594 749.203125 691.855469 728.398438 659.351562 C 684.785156 591.230469 644.71875 533.992188 594.125 467.519531 C 556.128906 417.59375 540.304688 398.8125 528.941406 390.164062 L 521.875 384.78125 L 513.105469 388.3125 C 499.789062 393.667969 479.285156 395.855469 461.746094 393.792969 C 444.261719 391.738281 413.976562 382.617188 396.53125 374.160156 C 385.621094 368.867188 383.964844 368.488281 381.847656 370.78125 C 380.535156 372.203125 376.683594 373.910156 373.296875 374.578125 C 369.90625 375.246094 356.808594 379.261719 344.195312 383.507812 C 329.285156 388.519531 318.003906 391.5 311.957031 392.019531 C 298.117188 393.199219 279.941406 389.003906 269.402344 382.195312 C 262.3125 377.617188 259.074219 376.535156 253.25 376.820312 C 239.96875 377.453125 224.546875 373.527344 219.589844 363.8125 C 219.058594 362.773438 217.808594 362.121094 212.773438 360.839844 C 199.324219 357.425781 194.730469 353.140625 192.542969 341.980469 C 191.570312 337.007812 191.292969 330.410156 191.925781 327.324219 C 193.804688 318.148438 214.066406 271.972656 222.855469 256.824219 C 225.035156 253.066406 226.433594 249.730469 225.953125 249.414062 C 223.773438 247.945312 172.8125 248.242188 147.691406 249.867188 C 113.894531 252.050781 96.652344 253.539062 77.125 255.964844 C 65.273438 257.4375 50.941406 258.539062 45.277344 258.414062 C 33.820312 258.164062 13.277344 251.976562 7.980469 247.179688 C 3.308594 242.945312 3.421875 235.019531 8.234375 229.941406 " fill-opacity="1" fill-rule="nonzero"/></g></g></g></g></g></svg>