<svg width="22" height="415" viewBox="0 0 22 415" fill="none" xmlns="http://www.w3.org/2000/svg">
<path id="Vector 9" d="M0.333333 11C0.333333 16.891 5.10896 21.6667 11 21.6667C16.891 21.6667 21.6667 16.891 21.6667 11C21.6667 5.10896 16.891 0.333333 11 0.333333C5.10896 0.333333 0.333333 5.10896 0.333333 11ZM0.333333 403.5C0.333333 409.391 5.10896 414.167 11 414.167C16.891 414.167 21.6667 409.391 21.6667 403.5C21.6667 397.609 16.891 392.833 11 392.833C5.10896 392.833 0.333333 397.609 0.333333 403.5ZM9 11V403.5H13V11H9Z" fill="url(#paint0_linear_20_2)"/>
<defs>
<linearGradient id="paint0_linear_20_2" x1="860.5" y1="-931" x2="860.5" y2="420" gradientUnits="userSpaceOnUse">
<stop stop-color="#F8A813"/>
<stop offset="0.741319" stop-color="#D146BF"/>
<stop offset="0.840277" stop-color="#00EEB9"/>
<stop offset="0.970486" stop-color="#F8A813"/>
</linearGradient>
</defs>
</svg>
