<svg width="1944" height="1360" viewBox="0 0 1944 1360" fill="none" xmlns="http://www.w3.org/2000/svg">
<path id="Vector 10" d="M1779.5 938.5C1621 983 1730 975.788 1639.5 911.5C1520.5 826.966 1412.5 818 1222 632C1141.79 553.683 960.1 383.6 930.5 350C911.333 339.833 857.6 290.8 796 176C776 172.167 724.6 150 679 92C663 83.1667 619.5 53.2 573.5 4C564.667 18 573.4 65.8 679 145L711 153C674.833 150.167 596.7 143 573.5 137C544.5 129.5 488 176 480 192C497.833 184.167 535.4 168.3 543 167.5C552.5 166.5 616 188 683 179C658 180.667 603.5 183 585.5 179C563 174 544.5 168 506.5 184C468.5 200 458.5 190 453.5 196.5C448.5 203 444 204 447.5 219C458.5 217.333 485.2 212.8 504 208C527.5 202 570 203.5 600 223C624 238.6 658.667 232.5 673 227.5C662.833 235.008 629.4 243.218 577 216C569.723 212.167 548.534 205.2 522 208C497.333 214 444.4 224.6 430 219C421.167 217.667 404.6 219.5 409 237.5C424.333 244.5 464.4 255.4 502 243C539.6 230.6 519 237.833 504 243C536.333 247 608.8 274 640 350L614.5 317C613.333 330 604.2 354.8 577 350C549.8 345.2 521.667 299.333 511 277L497.5 267.5C504.667 269 520.3 270.5 525.5 264.5C526.167 260.667 518.6 252.6 483 251C447.4 249.4 336.167 229 285 219C200.167 203.667 24.6 173 1 173C99.5 193.5 320 237.8 414 251L430 257.5H453.5L489.5 264.5C472 259.167 439.1 252.3 447.5 267.5C458 286.5 502 334.5 502 350C512.167 379 573.6 440.1 738 452.5C770.167 460.5 897.3 527.5 910.5 543.5C923.7 559.5 898.833 515 894 509.5C900.333 544.667 1000.77 650.671 1024.5 682.5C1233.59 963 1470.5 1102.5 1674.5 1206C2003 1372.67 1874.5 1287.5 1942 1358.5" stroke="white" stroke-width="4"/>
</svg>
