<svg width="450" height="2357" viewBox="0 0 450 2357" fill="none" xmlns="http://www.w3.org/2000/svg">
<path id="Vector 8" d="M235 932H233V934H235V932ZM447 932L448.846 932.769L450 930H447V932ZM235 1441L233.082 1441.57L234.678 1446.98L236.846 1441.77L235 1441ZM3 654.5V652.5H0.324847L1.08172 655.066L3 654.5ZM365.5 654.5H367.5V652.5H365.5V654.5ZM365.5 1991V1993H367.5V1991H365.5ZM235 1991V1989H233V1991H235ZM235 2353.5L233.675 2355L234.895 2356.08L236.198 2355.1L235 2353.5ZM316.5 2292.5L317.698 2294.1L322.51 2290.5H316.5V2292.5ZM166 2292.5V2290.5H160.718L164.675 2294L166 2292.5ZM224.333 11C224.333 16.891 229.109 21.6667 235 21.6667C240.891 21.6667 245.667 16.891 245.667 11C245.667 5.10896 240.891 0.333333 235 0.333333C229.109 0.333333 224.333 5.10896 224.333 11ZM233 329V932H237V329H233ZM235 934H447V930H235V934ZM445.154 931.231L233.154 1440.23L236.846 1441.77L448.846 932.769L445.154 931.231ZM236.918 1440.43L4.91828 653.934L1.08172 655.066L233.082 1441.57L236.918 1440.43ZM3 656.5H365.5V652.5H3V656.5ZM363.5 654.5V1991H367.5V654.5H363.5ZM365.5 1989H235V1993H365.5V1989ZM233 1991V2353.5H237V1991H233ZM236.198 2355.1L317.698 2294.1L315.302 2290.9L233.802 2351.9L236.198 2355.1ZM316.5 2290.5H166V2294.5H316.5V2290.5ZM164.675 2294L233.675 2355L236.325 2352L167.325 2291L164.675 2294ZM237 329V222.5H233V329H237ZM237 222.5V11H233V222.5H237Z" fill="url(#paint0_linear_17_13)"/>
<defs>
<linearGradient id="paint0_linear_17_13" x1="225" y1="329" x2="225" y2="2353.5" gradientUnits="userSpaceOnUse">
<stop offset="0.229167" stop-color="#F8A813"/>
<stop offset="0.350694" stop-color="#00EEB9"/>
<stop offset="0.532986" stop-color="#F8A813"/>
<stop offset="0.668402" stop-color="#D146BF"/>
</linearGradient>
</defs>
</svg>
