<svg width="224" height="2396" viewBox="0 0 224 2396" fill="none" xmlns="http://www.w3.org/2000/svg">
<path id="Vector 6" d="M110.847 1L113.171 181C205.5 95 123 263.415 113.171 253C82.5 220.5 79.7889 219.923 57.5 190.5C22.6533 144.5 92.6714 189 113.171 206C113.171 402.052 109.847 1501.71 110.847 1510.78M110.847 1510.78C115.347 1502.28 134.947 1481.3 149.347 1480.5C167.347 1479.5 167.847 1487.5 202.847 1472C241.5 1454.88 210.747 1488.7 186.347 1493.5C173.347 1489 146.247 1482.7 141.847 1493.5C136.347 1507 121.347 1524 90.8467 1499.5C60.3467 1475 70.3467 1494.5 51.3467 1497C32.3467 1499.5 11.3467 1488 3.34672 1480.5C-4.65328 1473 24.8467 1498 42.8467 1493.5C60.8467 1489 75.8467 1471 94.3467 1484C112.847 1497 109.847 1501.71 110.847 1510.78ZM110.847 1510.78C111.847 1519.85 79.8467 1526 57.8467 1525.5C52.5564 1525.38 47.5262 1524.74 42.8467 1523.76M42.8467 1523.76C28.0663 1520.66 16.7837 1514.18 11.8467 1510C6.64672 1505.6 19.6801 1514.83 26.8467 1520C24.5134 1523.33 20.6467 1531.1 23.8467 1535.5C22.8467 1533.33 22.0467 1527.5 26.8467 1521.5C30.5134 1521.83 38.3467 1523.1 40.3467 1525.5C39.5134 1530.67 40.3467 1538.5 42.8467 1543C41.0134 1537.34 38.4467 1525.57 42.8467 1523.76ZM55 1525.38C54 1530.22 55 1541 59.3467 1547C57.1801 1540.5 53.8467 1527.5 57.8467 1527.5C62.5134 1526.83 72.0467 1525.5 72.8467 1525.5C73.8467 1525.5 71.3467 1536.5 75.8467 1543C73.5134 1537.75 70.2467 1526.89 75.8467 1525.5C82.8467 1523.76 86.3467 1521.5 87.8467 1521.5C89.3467 1521.5 84.8467 1528.5 92.8467 1538.5C90.1801 1533.83 86.0467 1523.9 90.8467 1521.5C96.8467 1518.5 113.347 1504.5 113.347 1520C113.347 1535.5 126.847 1625 146.347 1618C157.847 1614.67 184.447 1613.7 198.847 1636.5C202.68 1643.83 204.647 1659.8 181.847 1665C153.347 1671.5 158.847 1670 147.847 1681.5C136.847 1693 128.847 1693 110.847 1685C92.8467 1677 88.8467 1679 74.3467 1692C59.8467 1705 61.8467 1712.5 72.8467 1726.5C83.8467 1740.5 109.847 1778.5 202.847 1775.5C198.68 1769.33 188.647 1754.5 181.847 1744.5C173.347 1732 171.347 1719.5 147.847 1724.5C124.347 1729.5 123.347 1727 108.347 1714.5C93.3467 1702 63.8467 1681 52.8467 1695C51.5737 1698 52.0914 1707.1 64.3467 1719.5C71.0134 1735.83 88.2467 1770.5 103.847 1778.5C123.347 1788.5 130.347 1789 157.347 1783C178.947 1778.2 194.013 1774.67 198.847 1773.5C196.18 1773 187.347 1769.6 173.347 1760C155.847 1748 147.347 1757 130.847 1754C114.347 1751 114.847 1738.5 103.847 1735.5C92.8467 1732.5 67.5641 1726.5 66.8467 1721.5C66.1293 1716.5 74.3467 1781 72.8467 1850C71.6467 1905.2 72.8467 2111.17 72.8467 2216V2392.5M72.8467 2392.5C111.18 2348.5 157.698 2310.5 87.8467 2310.5C52.8467 2310.5 77.1497 2310.5 44.5 2310.5C-7.5 2310.5 17.2467 2330.5 72.8467 2392.5Z" stroke="url(#paint0_linear_12_2)" stroke-width="4"/>
<defs>
<linearGradient id="paint0_linear_12_2" x1="107.12" y1="-254" x2="107.12" y2="2388" gradientUnits="userSpaceOnUse">
<stop offset="0.038194" stop-color="#00EEB9"/>
<stop offset="0.585069" stop-color="#F8A813"/>
<stop offset="0.673611" stop-color="#D146BF"/>
<stop offset="0.756944" stop-color="#00EEB9"/>
<stop offset="0.866319" stop-color="#F8A813"/>
<stop offset="0.928819" stop-color="#D146BF"/>
</linearGradient>
</defs>
</svg>
