<svg width="237" height="3819" viewBox="0 0 237 3819" fill="none" xmlns="http://www.w3.org/2000/svg">
<path id="Vector 6" d="M120.18 0V213.661C218.33 117.789 130.629 305.535 120.18 293.925C87.5753 257.695 84.6933 257.051 60.9991 224.251C23.9554 172.971 98.3879 222.579 120.18 241.53C120.18 460.085 116.646 1685.96 117.709 1696.07M117.709 1696.07C122.493 1686.6 143.329 1663.21 158.636 1662.32C177.771 1661.2 178.303 1670.12 215.509 1652.84C256.6 1633.76 223.908 1671.46 197.969 1676.81C184.15 1671.79 155.341 1664.77 150.664 1676.81C144.817 1691.86 128.871 1710.81 96.4482 1683.5C64.0253 1656.19 74.6558 1677.93 54.4579 1680.71C34.26 1683.5 11.936 1670.68 3.43164 1662.32C-5.07274 1653.96 26.2871 1681.83 45.422 1676.81C64.5568 1671.79 80.5025 1651.73 100.169 1666.22C119.835 1680.71 116.646 1685.96 117.709 1696.07ZM117.709 1696.07C118.772 1706.19 84.7547 1713.04 61.3677 1712.48C55.7438 1712.35 50.3965 1711.64 45.422 1710.54M45.422 1710.54C29.7098 1707.09 17.7157 1699.86 12.4675 1695.21C6.93969 1690.3 20.7947 1700.59 28.4132 1706.35C25.9328 1710.07 21.8223 1718.73 25.2241 1723.63C24.161 1721.22 23.3106 1714.71 28.4132 1708.03C32.3111 1708.4 40.6383 1709.81 42.7644 1712.48C41.8785 1718.24 42.7644 1726.98 45.422 1731.99C43.4731 1725.68 40.7446 1712.56 45.422 1710.54ZM58.3415 1712.36C57.2784 1717.74 58.3415 1729.76 62.9622 1736.45C60.659 1729.21 57.1155 1714.71 61.3677 1714.71C66.3286 1713.97 76.463 1712.48 77.3134 1712.48C78.3764 1712.48 75.7188 1724.75 80.5025 1731.99C78.0221 1726.14 74.5495 1714.04 80.5025 1712.48C87.9438 1710.54 91.6645 1708.03 93.2591 1708.03C94.8537 1708.03 90.0699 1715.83 98.5743 1726.98C95.7395 1721.77 91.3456 1710.7 96.4482 1708.03C102.827 1704.68 120.367 1689.07 120.367 1706.35C120.367 1723.63 134.718 1823.41 155.447 1815.6C167.672 1811.89 195.949 1810.81 211.257 1836.23C215.332 1844.4 217.423 1862.2 193.185 1868C162.889 1875.24 168.735 1873.57 157.042 1886.39C145.348 1899.21 136.844 1899.21 117.709 1890.29C98.5743 1881.37 94.3221 1883.6 78.908 1898.1C63.4938 1912.59 65.6199 1920.95 77.3134 1936.56C89.0069 1952.16 116.646 1994.52 215.509 1991.18C211.08 1984.31 200.414 1967.77 193.185 1956.62C184.15 1942.69 182.023 1928.75 157.042 1934.33C132.06 1939.9 130.997 1937.11 115.052 1923.18C99.1058 1909.24 67.746 1885.83 56.0525 1901.44C54.6991 1904.78 55.2495 1914.93 68.2775 1928.75C75.3645 1946.96 93.6843 1986.58 110.268 1995.5M110.268 1995.5C130.997 2006.65 138.439 2006.23 167.141 1999.54C190.103 1994.19 206.119 1990.25 211.257 1988.95C208.422 1988.39 199.032 1984.6 184.15 1973.9C165.546 1960.52 156.51 1970.56 138.97 1967.21C121.43 1963.87 121.961 1949.93 110.268 1946.59C98.5743 1943.24 71.6977 1936.56 70.9351 1930.98M110.268 1995.5L114 3731M114 3731C271.5 3731 171 3731 120.367 3815.5C61.2614 3746.38 2.72157 3731 58 3731C92.7081 3731 76.7934 3731 114 3731Z" stroke="url(#paint0_linear_12_2)" stroke-width="4"/>
<defs>
<linearGradient id="paint0_linear_12_2" x1="113.747" y1="-271.269" x2="113.747" y2="2673.99" gradientUnits="userSpaceOnUse">
<stop offset="0.116319" stop-color="#00EEB9"/>
<stop offset="0.376736" stop-color="#D146BF"/>
<stop offset="0.491319" stop-color="#F8A813"/>
<stop offset="0.684028" stop-color="#00EEB9"/>
<stop offset="0.928819" stop-color="#D146BF"/>
</linearGradient>
</defs>
</svg>
