<svg width="22" height="1373" viewBox="0 0 22 1373" fill="none" xmlns="http://www.w3.org/2000/svg">
<path id="Vector 9" d="M0.333333 11C0.333333 16.891 5.10896 21.6667 11 21.6667C16.891 21.6667 21.6667 16.891 21.6667 11C21.6667 5.10896 16.891 0.333333 11 0.333333C5.10896 0.333333 0.333333 5.10896 0.333333 11ZM0.333333 1362C0.333333 1367.89 5.10896 1372.67 11 1372.67C16.891 1372.67 21.6667 1367.89 21.6667 1362C21.6667 1356.11 16.891 1351.33 11 1351.33C5.10896 1351.33 0.333333 1356.11 0.333333 1362ZM9 11V1362H13V11H9Z" fill="url(#paint0_linear_20_2)"/>
<defs>
<linearGradient id="paint0_linear_20_2" x1="11.5" y1="11" x2="11.5" y2="1362" gradientUnits="userSpaceOnUse">
<stop stop-color="#F8A813"/>
<stop offset="0.333333" stop-color="#D146BF"/>
<stop offset="0.637152" stop-color="#00EEB9"/>
<stop offset="0.855902" stop-color="#F8A813"/>
</linearGradient>
</defs>
</svg>
